<?xml version="1.0" encoding="utf-8"?>
<!-- Generator: Adobe Illustrator 16.0.0, SVG Export Plug-In . SVG Version: 6.00 Build 0)  -->
<!DOCTYPE svg PUBLIC "-//W3C//DTD SVG 1.1//EN" "http://www.w3.org/Graphics/SVG/1.1/DTD/svg11.dtd">
<svg version="1.1" id="Layer_1" xmlns="http://www.w3.org/2000/svg" xmlns:xlink="http://www.w3.org/1999/xlink" x="0px" y="0px"
	 width="567.093px" height="152.578px" viewBox="0 0 567.093 152.578" enable-background="new 0 0 567.093 152.578"
	 xml:space="preserve">
<g>
	<path fill="#FFFFFF" d="M161.598,0H25C11.193,0,0,11.193,0,25v102.578c0,13.807,11.193,25,25,25h56.832V74.802
		c-3.44,2.295-7.283,4.386-11.524,6.278c-4.244,1.892-8.372,3.525-12.384,4.901l-7.74-19.779c3.324-1.376,6.794-2.951,10.406-4.73
		c3.612-1.776,7.138-3.725,10.578-5.848c3.44-2.12,6.735-4.356,9.89-6.708c3.152-2.349,5.99-4.843,8.514-7.482h17.889v111.144
		h54.137c13.807,0,25-11.193,25-25V25C186.598,11.193,175.405,0,161.598,0z"/>
</g>
<g>
	<path fill="#FFFFFF" d="M242.454,101.254c2.403,0,4.387-0.2,5.954-0.601c1.565-0.399,2.822-0.945,3.771-1.639
		c0.945-0.691,1.601-1.511,1.966-2.458c0.364-0.946,0.546-2.003,0.546-3.169c0-2.476-1.166-4.534-3.496-6.173
		c-2.332-1.639-6.337-3.404-12.019-5.299c-2.478-0.874-4.954-1.875-7.429-3.005c-2.478-1.128-4.699-2.548-6.665-4.261
		c-1.967-1.71-3.569-3.786-4.808-6.228c-1.24-2.439-1.857-5.408-1.857-8.905c0-3.496,0.655-6.646,1.966-9.451
		c1.312-2.803,3.169-5.19,5.572-7.157c2.404-1.967,5.316-3.478,8.74-4.534c3.424-1.055,7.283-1.584,11.582-1.584
		c5.099,0,9.507,0.546,13.221,1.639c3.715,1.092,6.774,2.294,9.178,3.605l-4.917,13.439c-2.112-1.092-4.462-2.057-7.047-2.896
		c-2.586-0.836-5.7-1.256-9.341-1.256c-4.081,0-7.012,0.565-8.796,1.693c-1.786,1.13-2.677,2.86-2.677,5.19
		c0,1.384,0.327,2.551,0.983,3.497c0.655,0.947,1.584,1.803,2.785,2.567c1.202,0.765,2.586,1.458,4.153,2.076
		c1.565,0.62,3.294,1.256,5.189,1.912c3.933,1.458,7.355,2.896,10.271,4.316c2.911,1.42,5.335,3.078,7.266,4.971
		c1.929,1.895,3.368,4.116,4.315,6.665c0.946,2.551,1.42,5.646,1.42,9.287c0,7.066-2.477,12.548-7.43,16.443
		c-4.954,3.898-12.419,5.846-22.397,5.846c-3.352,0-6.375-0.202-9.068-0.601c-2.696-0.401-5.081-0.893-7.157-1.475
		c-2.076-0.582-3.861-1.202-5.354-1.857c-1.494-0.655-2.75-1.273-3.77-1.857l4.808-13.548c2.257,1.24,5.043,2.35,8.358,3.333
		C233.585,100.763,237.646,101.254,242.454,101.254z"/>
	<path fill="#FFFFFF" d="M281.567,85.521c0-4.152,0.672-8.066,2.021-11.746c1.347-3.677,3.295-6.883,5.846-9.615
		c2.549-2.731,5.644-4.897,9.287-6.501c3.642-1.601,7.793-2.403,12.455-2.403c3.06,0,5.863,0.273,8.413,0.819
		c2.549,0.546,5.026,1.33,7.43,2.349l-3.387,13.002c-1.529-0.583-3.206-1.093-5.026-1.53c-1.821-0.437-3.861-0.655-6.118-0.655
		c-4.808,0-8.396,1.494-10.762,4.479c-2.368,2.987-3.552,6.92-3.552,11.8c0,5.173,1.11,9.178,3.333,12.019
		c2.221,2.841,6.1,4.261,11.637,4.261c1.966,0,4.078-0.181,6.337-0.546c2.256-0.364,4.333-0.946,6.228-1.748l2.294,13.33
		c-1.895,0.803-4.261,1.492-7.102,2.076c-2.841,0.582-5.973,0.874-9.396,0.874c-5.244,0-9.762-0.784-13.548-2.349
		c-3.788-1.565-6.902-3.696-9.342-6.392c-2.441-2.694-4.226-5.881-5.354-9.561C282.13,93.808,281.567,89.82,281.567,85.521z"/>
	<path fill="#FFFFFF" d="M373.564,71.208c-1.459-0.364-3.169-0.746-5.136-1.147c-1.967-0.399-4.081-0.601-6.337-0.601
		c-1.021,0-2.24,0.092-3.66,0.273c-1.421,0.183-2.496,0.383-3.224,0.601v43.922h-16.279V59.845
		c2.912-1.019,6.354-1.983,10.324-2.895c3.97-0.91,8.395-1.366,13.275-1.366c0.874,0,1.929,0.055,3.169,0.164
		c1.237,0.109,2.476,0.256,3.715,0.437c1.237,0.183,2.475,0.401,3.715,0.656c1.237,0.256,2.294,0.565,3.168,0.929L373.564,71.208z"
		/>
	<path fill="#FFFFFF" d="M381.213,85.958c0-5.098,0.781-9.56,2.35-13.384c1.564-3.824,3.622-7.01,6.173-9.56
		c2.548-2.549,5.479-4.48,8.795-5.791c3.313-1.311,6.72-1.966,10.216-1.966c8.157,0,14.604,2.496,19.339,7.484
		c4.734,4.99,7.103,12.33,7.103,22.016c0,0.947-0.038,1.985-0.109,3.114c-0.073,1.13-0.147,2.13-0.219,3.004h-36.931
		c0.364,3.352,1.93,6.009,4.699,7.976c2.767,1.967,6.481,2.95,11.145,2.95c2.985,0,5.917-0.273,8.795-0.819
		c2.876-0.546,5.226-1.219,7.047-2.021l2.186,13.22c-0.874,0.437-2.04,0.875-3.496,1.312c-1.458,0.437-3.078,0.819-4.862,1.147
		c-1.785,0.328-3.698,0.601-5.735,0.82c-2.041,0.218-4.081,0.328-6.119,0.328c-5.173,0-9.67-0.765-13.493-2.294
		c-3.824-1.53-6.993-3.623-9.506-6.283c-2.514-2.658-4.371-5.808-5.572-9.451C381.813,94.117,381.213,90.183,381.213,85.958z
		 M419.454,79.73c-0.074-1.383-0.312-2.731-0.711-4.042c-0.401-1.312-1.021-2.476-1.856-3.497c-0.839-1.019-1.896-1.857-3.169-2.513
		c-1.275-0.656-2.86-0.984-4.753-0.984c-1.821,0-3.388,0.311-4.698,0.929c-1.312,0.62-2.404,1.439-3.278,2.458
		c-0.874,1.021-1.548,2.204-2.021,3.551c-0.475,1.349-0.819,2.714-1.039,4.097H419.454z"/>
	<path fill="#FFFFFF" d="M445.02,85.958c0-5.098,0.782-9.56,2.35-13.384c1.565-3.824,3.622-7.01,6.173-9.56
		c2.549-2.549,5.48-4.48,8.796-5.791c3.313-1.311,6.719-1.966,10.216-1.966c8.156,0,14.604,2.496,19.339,7.484
		c4.733,4.99,7.102,12.33,7.102,22.016c0,0.947-0.038,1.985-0.109,3.114c-0.073,1.13-0.146,2.13-0.218,3.004h-36.931
		c0.364,3.352,1.93,6.009,4.698,7.976c2.768,1.967,6.482,2.95,11.145,2.95c2.986,0,5.917-0.273,8.796-0.819
		c2.876-0.546,5.226-1.219,7.047-2.021l2.186,13.22c-0.874,0.437-2.041,0.875-3.496,1.312c-1.458,0.437-3.078,0.819-4.862,1.147
		c-1.786,0.328-3.698,0.601-5.736,0.82c-2.04,0.218-4.08,0.328-6.119,0.328c-5.172,0-9.669-0.765-13.493-2.294
		s-6.992-3.623-9.506-6.283c-2.513-2.658-4.37-5.808-5.572-9.451C445.62,94.117,445.02,90.183,445.02,85.958z M483.261,79.73
		c-0.073-1.383-0.311-2.731-0.71-4.042c-0.401-1.312-1.021-2.476-1.857-3.497c-0.839-1.019-1.895-1.857-3.169-2.513
		c-1.275-0.656-2.859-0.984-4.753-0.984c-1.821,0-3.387,0.311-4.697,0.929c-1.312,0.62-2.404,1.439-3.278,2.458
		c-0.874,1.021-1.548,2.204-2.021,3.551c-0.475,1.349-0.82,2.714-1.039,4.097H483.261z"/>
	<path fill="#FFFFFF" d="M511.56,58.752c2.767-0.801,6.337-1.547,10.707-2.24c4.371-0.691,8.96-1.038,13.767-1.038
		c4.88,0,8.94,0.639,12.183,1.912c3.24,1.275,5.808,3.078,7.703,5.408c1.894,2.332,3.24,5.1,4.043,8.304
		c0.8,3.206,1.201,6.774,1.201,10.708v32.45h-16.279V83.773c0-5.245-0.693-8.959-2.076-11.145c-1.385-2.186-3.972-3.278-7.758-3.278
		c-1.166,0-2.403,0.055-3.715,0.164c-1.311,0.109-2.477,0.237-3.496,0.382v44.359H511.56V58.752z"/>
</g>
</svg>
